<svg width="1042" height="662" viewBox="0 0 1042 662" fill="none" xmlns="http://www.w3.org/2000/svg">
<rect width="472" height="479" rx="32" fill="#1C22AD"/>
<path d="M53.6 221C50.42 221 48.83 219.41 48.83 216.23V109.76C48.83 106.58 50.42 104.99 53.6 104.99H100.58C109.4 104.99 116.06 107.24 120.56 111.74C125.12 116.18 127.4 122.72 127.4 131.36V136.22C127.4 145.64 124.37 152.3 118.31 156.2C128.81 160.52 134.06 169.88 134.06 184.28V189.95C134.06 200.15 131.42 207.89 126.14 213.17C120.92 218.39 113.18 221 102.92 221H53.6ZM58.28 211.55H102.92C110.54 211.55 116.06 209.84 119.48 206.42C122.9 203 124.61 197.51 124.61 189.95V184.28C124.61 176.72 122.9 171.26 119.48 167.9C116.12 164.54 110.6 162.86 102.92 162.86H58.28V211.55ZM58.28 153.41H101.93C107.39 153.41 111.41 152.03 113.99 149.27C116.63 146.45 117.95 142.1 117.95 136.22V131.36C117.95 125.36 116.57 121.04 113.81 118.4C111.11 115.76 106.7 114.44 100.58 114.44H58.28V153.41ZM185.201 221C176.681 221 170.411 219.02 166.391 215.06C162.431 211.1 160.451 204.89 160.451 196.43V100.85C160.451 97.73 162.041 96.17 165.221 96.17C168.341 96.17 169.901 97.73 169.901 100.85V196.43C169.901 202.25 170.981 206.24 173.141 208.4C175.301 210.5 179.291 211.55 185.111 211.55C188.351 211.55 189.971 213.11 189.971 216.23C190.031 219.41 188.441 221 185.201 221ZM239.378 221C228.158 221 219.938 218.42 214.718 213.26C209.498 208.04 206.888 199.85 206.888 188.69V168.35C206.888 157.01 209.498 148.76 214.718 143.6C219.938 138.38 228.158 135.83 239.378 135.95H254.138C265.358 135.95 273.548 138.56 278.708 143.78C283.928 148.94 286.538 157.13 286.538 168.35V188.51C286.538 199.73 283.928 207.95 278.708 213.17C273.548 218.39 265.358 221 254.138 221H239.378ZM216.338 188.69C216.338 197.15 218.018 203.09 221.378 206.51C224.798 209.87 230.798 211.55 239.378 211.55H254.138C262.718 211.55 268.688 209.87 272.048 206.51C275.408 203.09 277.088 197.09 277.088 188.51V168.35C277.088 159.77 275.408 153.8 272.048 150.44C268.688 147.08 262.718 145.4 254.138 145.4H239.378C233.618 145.34 229.058 146.03 225.698 147.47C222.338 148.91 219.938 151.31 218.498 154.67C217.058 158.03 216.338 162.59 216.338 168.35V188.69ZM338.475 257C331.395 257 325.995 255.53 322.275 252.59C318.555 249.71 316.365 245.15 315.705 238.91C315.525 237.35 315.855 236.12 316.695 235.22C317.535 234.32 318.705 233.87 320.205 233.87C321.705 233.87 322.845 234.26 323.625 235.04C324.405 235.82 324.915 236.99 325.155 238.55C325.575 242.03 326.805 244.4 328.845 245.66C330.885 246.92 334.095 247.55 338.475 247.55H371.955C377.235 247.55 380.805 246.59 382.665 244.67C384.585 242.75 385.545 239.15 385.545 233.87V208.13C382.785 212.33 378.885 215.54 373.845 217.76C368.805 219.92 362.415 221 354.675 221H347.835C336.615 221 328.395 218.42 323.175 213.26C317.955 208.04 315.345 199.85 315.345 188.69V168.35C315.345 157.01 317.925 148.79 323.085 143.69C328.305 138.53 336.555 135.95 347.835 135.95H362.595C368.475 135.95 373.245 136.73 376.905 138.29C380.565 139.85 383.445 142.28 385.545 145.58V140.63C385.545 137.51 387.135 135.95 390.315 135.95C393.435 135.95 394.995 137.51 394.995 140.63V233.87C394.995 241.79 393.135 247.61 389.415 251.33C385.695 255.11 379.875 257 371.955 257H338.475ZM347.835 211.55H354.675C364.035 211.55 371.505 210.08 377.085 207.14C382.725 204.2 385.545 199.73 385.545 193.73V163.67C385.545 156.89 383.655 152.15 379.875 149.45C376.095 146.75 370.335 145.4 362.595 145.4H347.835C339.255 145.4 333.255 147.08 329.835 150.44C326.475 153.74 324.795 159.71 324.795 168.35V188.69C324.795 197.15 326.475 203.09 329.835 206.51C333.255 209.87 339.255 211.55 347.835 211.55ZM428.731 221C425.251 221 423.511 219.23 423.511 215.69V212.27C423.511 208.85 425.251 207.14 428.731 207.14H432.061C435.481 207.14 437.191 208.85 437.191 212.27V215.69C437.191 219.23 435.481 221 432.061 221H428.731Z" fill="white"/>
<path d="M95.57 383C84.53 383 76.46 380.45 71.36 375.35C66.26 370.25 63.71 362.21 63.71 351.23V307.4H53C49.82 307.4 48.23 305.81 48.23 302.63C48.23 299.51 49.82 297.95 53 297.95H63.71V278.6C63.71 275.42 65.27 273.83 68.39 273.83C71.57 273.83 73.16 275.42 73.16 278.6V297.95H95.75C98.87 297.95 100.43 299.51 100.43 302.63C100.43 305.81 98.87 307.4 95.75 307.4H73.16V351.23C73.16 359.63 74.78 365.45 78.02 368.69C81.32 371.93 87.17 373.55 95.57 373.55C97.31 373.55 98.54 373.94 99.26 374.72C100.04 375.5 100.43 376.67 100.43 378.23C100.43 381.41 98.81 383 95.57 383ZM125.155 344.12V350.69C125.155 359.15 126.835 365.09 130.195 368.51C133.615 371.87 139.615 373.55 148.195 373.55H162.955C170.515 373.55 176.005 372.59 179.425 370.67C182.905 368.69 184.975 365.3 185.635 360.5C185.875 359 186.355 357.86 187.075 357.08C187.855 356.3 189.025 355.91 190.585 355.91C192.145 355.91 193.315 356.36 194.095 357.26C194.935 358.1 195.265 359.3 195.085 360.86C194.305 368.42 191.275 374 185.995 377.6C180.715 381.2 173.035 383 162.955 383H148.195C136.975 383 128.755 380.42 123.535 375.26C118.315 370.04 115.705 361.85 115.705 350.69V330.35C115.705 319.01 118.315 310.76 123.535 305.6C128.755 300.38 136.975 297.83 148.195 297.95H162.955C174.175 297.95 182.365 300.56 187.525 305.78C192.745 310.94 195.355 319.13 195.355 330.35V339.35C195.355 342.53 193.795 344.12 190.675 344.12H125.155ZM148.195 307.4C139.615 307.28 133.615 308.93 130.195 312.35C126.835 315.71 125.155 321.71 125.155 330.35V334.67H185.905V330.35C185.905 321.77 184.225 315.8 180.865 312.44C177.505 309.08 171.535 307.4 162.955 307.4H148.195ZM231.362 383C228.182 383 226.592 381.41 226.592 378.23V262.85C226.592 259.73 228.182 258.17 231.362 258.17C234.482 258.17 236.042 259.73 236.042 262.85V337.64L281.762 298.4C284.042 296.36 286.232 296.51 288.332 298.85C290.372 301.19 290.222 303.41 287.882 305.51L254.762 334.04L290.762 374.9C292.862 377.24 292.712 379.46 290.312 381.56C288.032 383.6 285.842 383.45 283.742 381.11L247.472 340.25L236.042 350.06V378.23C236.042 381.41 234.482 383 231.362 383Z" fill="white"/>
</svg>
